# Blender v2.93.2 OBJ File: ''
# www.blender.org
mtllib Tooth.mtl
o Cylinder_Cylinder.001
v -0.000000 0.871790 -0.000000
v 0.866025 0.755962 -0.500000
v 0.000000 0.884172 -1.000000
v 0.866025 0.884172 0.500000
v -0.000000 0.884172 1.000000
v -0.866025 0.755962 0.500000
v -0.866025 0.884172 -0.500000
v 0.622610 0.871790 -0.359464
v 0.000000 1.000000 -0.718928
v 0.622610 1.000000 0.359464
v -0.000000 1.000000 0.718928
v -0.622610 0.871790 0.359464
v -0.622610 1.000000 -0.359464
v 0.659409 -0.498279 0.380710
v -0.659409 -0.498279 -0.380710
v -0.659409 -0.498279 0.380710
v -0.219803 -2.004959 0.380710
v -0.000000 -1.060375 0.000000
v 0.439606 -1.984319 0.000000
v -0.000000 -0.498279 -0.761420
v 0.000000 0.254051 -1.000000
v 0.866025 0.254051 -0.500000
v 0.659409 -0.498279 -0.380710
v 0.866025 0.254051 0.500000
v -0.000000 0.254051 1.000000
v -0.000000 -0.498279 0.761420
v -0.866025 0.254051 0.500000
v -0.866025 0.254051 -0.500000
v -0.219803 -1.995150 -0.380710
v -0.433013 0.755962 -0.750000
v -0.311305 0.871790 -0.539196
v 0.433013 0.755962 0.750000
v 0.311305 0.871790 0.539196
vt 1.000000 0.813513
vt 1.000000 1.000000
vt 0.833333 1.000000
vt 0.833333 0.813513
vt 0.666667 1.000000
vt 0.666667 0.813513
vt 0.249879 0.250070
vt 0.250000 0.077457
vt 0.324713 0.120593
vt 0.500000 0.813513
vt 0.500000 1.000000
vt 0.333333 1.000000
vt 0.333333 0.813513
vt 0.166667 1.000000
vt 0.166667 0.813513
vt 0.666667 0.646846
vt 0.500000 0.646846
vt 0.250000 0.422543
vt 0.399426 0.336271
vt 0.457846 0.370000
vt 0.250000 0.490000
vt 0.399426 0.163729
vt 0.457846 0.130000
vt 0.250000 0.010000
vt 0.353923 0.070000
vt 0.100574 0.163729
vt 0.042154 0.130000
vt 0.100574 0.336271
vt 0.042154 0.370000
vt 0.175287 0.379407
vt 0.146077 0.430000
vt 0.249879 0.249930
vt 0.250121 0.250070
vt 0.250121 0.249930
vt 0.553125 0.136334
vt 0.750000 0.250250
vt 0.542154 0.130000
vt 0.750197 -0.099519
vt 0.749568 0.250250
vt 0.487170 0.585371
vt 0.333333 0.646846
vt 0.500000 0.500000
vt 0.965229 0.125738
vt 0.749784 0.249875
vt 0.957846 0.130000
vt 0.965213 0.374271
vt 0.750000 0.249501
vt 0.833333 0.646846
vt 0.833333 0.500000
vt 0.083333 1.000000
vt -0.000000 1.000000
vt -0.000000 0.813513
vt 0.166667 0.646846
vt 0.583333 1.000000
vt 1.000000 0.646846
vt 0.750216 0.249875
vt 0.539301 0.371640
vt 0.750432 0.250250
vt 0.750000 0.449367
vt 0.750000 0.490000
vt -0.046721 0.586322
vt 0.166667 0.500000
vt -0.000000 0.646846
vn 0.5000 0.0000 -0.8660
vn 1.0000 0.0000 0.0000
vn 0.2909 0.9419 -0.1680
vn -0.5000 0.0000 0.8660
vn -1.0000 0.0000 0.0000
vn 0.4821 -0.2648 0.8351
vn 0.3285 0.8949 -0.3020
vn 0.4258 0.8949 -0.1335
vn 0.4551 0.8437 0.2848
vn -0.3285 0.8949 0.3020
vn -0.4258 0.8949 0.1335
vn -0.4551 0.8437 -0.2848
vn 0.1008 0.9794 0.1747
vn -0.1008 0.9794 -0.1747
vn -0.2909 0.9419 0.1680
vn -0.5999 -0.1750 -0.7807
vn 0.9760 -0.1750 0.1292
vn -0.4948 -0.1444 0.8570
vn -0.3739 -0.1779 0.9103
vn -0.3739 -0.1779 -0.9103
vn 0.9892 -0.1463 0.0000
vn -0.5000 0.0000 -0.8660
vn -0.9643 -0.2648 0.0000
vn -0.4821 -0.2648 0.8351
vn 0.5000 0.0000 0.8660
vn 0.9643 -0.2648 0.0000
vn 0.4821 -0.2648 -0.8351
vn -0.6006 -0.1764 0.7798
vn 0.3244 -0.7610 0.5618
vn 0.9757 -0.1764 -0.1302
vn -0.4947 -0.1453 -0.8568
vn -0.6487 -0.7610 0.0000
vn 0.3244 -0.7610 -0.5618
vn -0.0191 0.8437 -0.5365
vn 0.0191 0.8437 0.5365
vn -0.4821 -0.2648 -0.8351
usemtl None
s off
f 21/1/1 3/2/1 2/3/1 22/4/1
f 22/4/2 2/3/2 4/5/2 24/6/2
f 1/7/3 11/8/3 33/9/3
f 25/10/4 5/11/4 6/12/4 27/13/4
f 27/13/5 6/12/5 7/14/5 28/15/5
f 14/16/6 24/6/6 25/10/6 26/17/6
f 9/18/7 8/19/7 2/20/7 3/21/7
f 8/19/8 10/22/8 4/23/8 2/20/8
f 33/9/9 11/8/9 5/24/9 32/25/9
f 11/8/10 12/26/10 6/27/10 5/24/10
f 12/26/11 13/28/11 7/29/11 6/27/11
f 31/30/12 9/18/12 3/21/12 30/31/12
f 1/32/13 8/19/13 9/18/13
f 1/7/14 10/22/14 8/19/14
f 10/22/15 1/7/15 33/9/15
f 1/33/14 12/26/14 11/8/14
f 1/34/13 13/28/13 12/26/13
f 1/32/15 9/18/15 31/30/15
f 16/35/16 18/36/16 17/37/16
f 18/36/17 26/38/17 17/39/17
f 26/40/18 16/41/18 17/42/18
f 14/43/19 18/44/19 19/45/19
f 18/44/20 23/46/20 19/47/20
f 23/48/21 14/16/21 19/49/21
f 28/15/22 7/14/22 30/50/22 3/51/22 21/52/22
f 16/41/23 27/13/23 28/15/23 15/53/23
f 26/17/24 25/10/24 27/13/24 16/41/24
f 24/6/25 4/5/25 32/54/25 5/11/25 25/10/25
f 23/48/26 22/4/26 24/6/26 14/16/26
f 20/55/27 21/1/27 22/4/27 23/48/27
f 18/56/28 15/57/28 29/58/28
f 18/36/29 14/16/29 26/38/29
f 20/59/30 18/56/30 29/60/30
f 15/53/31 20/61/31 29/62/31
f 18/56/32 16/41/32 15/57/32
f 20/59/33 23/46/33 18/56/33
f 13/28/34 31/30/34 30/31/34 7/29/34
f 10/22/35 33/9/35 32/25/35 4/23/35
f 31/30/3 13/28/3 1/32/3
f 15/53/36 28/15/36 21/52/36 20/63/36
